<?xml version="1.0" encoding="UTF-8" standalone="no"?>
<!-- Created with Inkscape (http://www.inkscape.org/) -->

<svg
   width="85.755959mm"
   height="18.488277mm"
   viewBox="0 0 85.755959 18.488277"
   version="1.1"
   id="svg1"
   xml:space="preserve"
   inkscape:version="1.3 (0e150ed6c4, 2023-07-21)"
   sodipodi:docname="nokorpo.svg"
   inkscape:export-filename="..\..\..\Users\anti\Desktop\watermark.png"
   inkscape:export-xdpi="96"
   inkscape:export-ydpi="96"
   xmlns:inkscape="http://www.inkscape.org/namespaces/inkscape"
   xmlns:sodipodi="http://sodipodi.sourceforge.net/DTD/sodipodi-0.dtd"
   xmlns="http://www.w3.org/2000/svg"
   xmlns:svg="http://www.w3.org/2000/svg"><sodipodi:namedview
     id="namedview1"
     pagecolor="#505050"
     bordercolor="#eeeeee"
     borderopacity="1"
     inkscape:showpageshadow="0"
     inkscape:pageopacity="0"
     inkscape:pagecheckerboard="0"
     inkscape:deskcolor="#505050"
     inkscape:document-units="mm"
     inkscape:zoom="1.7172715"
     inkscape:cx="235.54808"
     inkscape:cy="103.07048"
     inkscape:window-width="1280"
     inkscape:window-height="961"
     inkscape:window-x="1912"
     inkscape:window-y="56"
     inkscape:window-maximized="1"
     inkscape:current-layer="layer1" /><defs
     id="defs1" /><g
     inkscape:label="Layer 1"
     inkscape:groupmode="layer"
     id="layer1"
     transform="translate(-2.7816298,-3.0868067)"><g
       id="g5"
       style="fill:#ffffff;fill-opacity:1"><path
         d="m 28.091566,13.25636 h 0.755575 v 0.755575 h 0.755575 v 0.755575 h 0.755575 v 2.266725 h 3.0223 V 9.4784851 h -3.0223 V 11.74521 H 29.602716 V 10.989635 H 28.847141 V 10.23406 H 28.091566 V 9.4784851 h -3.0223 v 7.5557499 h 3.0223 z m 13.600356,3.0223 h 0.755575 v -6.0446 H 41.691922 V 9.4784851 H 34.891747 V 10.23406 h -0.755575 v 6.0446 h 0.755575 v 0.755575 h 6.800175 z m -2.266725,-2.266725 v 1.51115 h -2.266725 v -4.53345 h 2.266725 v 1.51115 z m 6.800181,0.755575 h 0.755575 v 0.755575 h 0.755575 v 0.755575 h 0.755575 v 0.755575 h 3.777875 v -1.51115 H 51.514403 V 14.76751 h -0.755575 v -0.755575 h -0.755575 v -1.51115 h 0.755575 V 11.74521 h 0.755575 v -0.755575 h 0.755575 V 9.4784851 h -0.755575 -3.0223 V 10.23406 h -0.755575 v 0.755575 H 46.980953 V 11.74521 H 46.225378 V 9.4784851 h -3.0223 v 7.5557499 h 3.0223 z m 14.355917,1.51115 h 0.755575 v -6.0446 H 60.581295 V 9.4784851 H 53.78112 V 10.23406 h -0.755575 v 6.0446 h 0.755575 v 0.755575 h 6.800175 z M 58.31457,14.011935 v 1.51115 h -2.266725 v -4.53345 h 2.266725 v 1.51115 z m 6.800181,0 h 2.266725 v 3.0223 h 3.0223 v -3.0223 h -0.755575 v -1.51115 h 0.755575 V 10.23406 H 69.648201 V 9.4784851 h -2.266725 -2.266725 -3.0223 v 7.5557499 h 3.0223 z m 0,-3.0223 h 2.266725 v 1.51115 h -2.266725 z m 9.066906,3.0223 h 4.53345 V 13.25636 h 0.755575 v -3.0223 H 78.715107 V 9.4784851 h -2.266725 -2.266725 -3.0223 v 7.5557499 h 3.0223 z m 0,-3.0223 h 2.266725 v 1.51115 h -2.266725 z m 13.600356,5.289025 h 0.755575 v -6.0446 H 87.782013 V 9.4784851 H 80.981838 V 10.23406 h -0.755575 v 6.0446 h 0.755575 v 0.755575 h 6.800175 z m -2.266725,-2.266725 v 1.51115 h -2.266725 v -4.53345 h 2.266725 v 1.51115 z"
         id="text1-8"
         style="font-size:15.1115px;font-family:'Upheaval TT (BRK)';-inkscape-font-specification:'Upheaval TT (BRK)';text-align:center;letter-spacing:0px;text-anchor:middle;stroke-width:1.85208;stroke-linecap:round;stroke-linejoin:bevel;paint-order:stroke fill markers"
         aria-label="Nokorpo" /><path
         id="path1-3"
         style="fill:#ffffff;fill-opacity:1;stroke:none;stroke-width:2.1657;stroke-linejoin:miter;stroke-dasharray:none;stroke-opacity:1"
         d="m 4.3712647,3.0868067 -0.785999,0.647506 c -0.432255,0.356272 -0.794168,0.688359 -0.803568,0.737939 -0.00961,0.049615 1.002593,2.4053009 2.248958,5.2348229 1.246371,2.8295324 2.299052,5.2480114 2.339392,5.3738324 0.06763,0.210784 0.063835,0.236449 -0.050643,0.329179 -0.128731,0.104246 -0.532267,1.079642 -0.532267,1.286743 0,0.24611 0.295325,1.078701 0.422713,1.191659 0.283003,0.250974 0.779491,0.565933 0.945162,0.599963 0.165103,0.03385 0.174901,0.0525 0.181901,0.330212 0.00861,0.361559 0.11434,0.697904 0.233578,0.743624 0.211766,0.08127 1.9193383,-0.477376 1.9854083,-0.649573 0.04622,-0.120463 -0.09305,-0.391637 -0.308508,-0.60048 -0.230389,-0.223319 -0.243468,-0.288286 -0.08578,-0.430981 0.0628,-0.05686 0.143647,-0.192077 0.179317,-0.30024 0.03576,-0.108198 0.09898,-0.196887 0.141077,-0.196887 0.09093,0 1.312065,1.383713 1.312065,1.486731 0,0.03912 -0.07984,0.104354 -0.17725,0.144694 -0.289879,0.120078 -0.453458,0.280332 -0.58136,0.569474 -0.215637,0.487472 -0.216014,0.726576 -5.17e-4,1.172021 0.180964,0.374083 0.210484,0.402511 0.605648,0.602031 0.375818,0.189672 0.461851,0.209926 0.910022,0.213423 0.446533,0.0035 0.540758,-0.01654 0.966349,-0.205672 0.469406,-0.208586 0.472562,-0.211597 0.660941,-0.600997 0.161759,-0.334441 0.186522,-0.441438 0.168982,-0.736906 l -0.02067,-0.345715 h 0.233061 0.232544 l -0.01809,0.341064 c -0.01458,0.269917 0.01484,0.419547 0.141593,0.717786 0.157193,0.36986 0.168646,0.38125 0.613916,0.605131 0.42192,0.212083 0.488258,0.227893 0.950847,0.227893 0.465207,0 0.528068,-0.01504 0.965832,-0.235128 0.449972,-0.226242 0.474383,-0.249477 0.638721,-0.596862 0.220167,-0.465326 0.216669,-0.690254 -0.01809,-1.152902 -0.156586,-0.308598 -0.236894,-0.397872 -0.465605,-0.518314 -0.152,-0.08005 -0.276375,-0.179259 -0.276469,-0.220659 -2.22e-4,-0.09642 1.171425,-1.457676 1.259355,-1.463476 0.03634,-0.0023 0.105706,0.05644 0.153996,0.130225 0.192613,0.293959 0.720748,0.819345 0.898136,0.893485 0.233902,0.09799 1.169545,0.104235 1.483114,0.01034 0.164736,-0.04937 0.320844,-0.17454 0.562756,-0.451135 0.616431,-0.70484 0.591179,-0.648284 0.591179,-1.302246 0,-0.652126 0.01031,-0.629602 -0.605648,-1.335319 -0.207756,-0.238029 -0.365665,-0.35819 -0.551904,-0.42168 -0.326795,-0.110992 -1.055563,-0.113515 -1.414384,-0.0047 -0.337076,0.102165 -0.338998,0.09723 -0.338998,-0.612882 V 13.773966 L 18.934197,13.090287 C 18.331286,12.12672 18.33855,12.145774 18.26137,11.279028 18.19347,10.516459 18.18683,10.491362 17.928574,10.03621 l -0.26355,-0.4645714 0.619084,-1.551327 c 0.34072,-0.853323 0.660167,-1.6434259 0.709517,-1.7554479 0.07414,-0.168466 0.244314,-1.498563 0.250114,-1.960087 0.0013,-0.094868 -0.08111,-0.171849 -0.328662,-0.305925 -0.334067,-0.180943 -1.103823,-0.455364 -1.144633,-0.408244 -0.07816,0.090202 -0.805706,1.121481 -0.928625,1.316199 -0.08229,0.130346 -0.45623,0.993589 -0.830441,1.9182289 -0.37421,0.924639 -0.709957,1.700426 -0.746207,1.723926 -0.118535,0.07706 -1.413519,0.05255 -1.474329,-0.0279 -0.03029,-0.04002 -0.353316,-0.806726 -0.717786,-1.703256 -0.364481,-0.8965279 -0.69003,-1.6829169 -0.72347,-1.7476959 -0.109964,-0.213158 -1.029406,-1.483114 -1.073836,-1.483114 -0.117647,0 -0.886237,0.294396 -1.156002,0.442867 -0.2639059,0.145278 -0.3022589,0.188606 -0.2795689,0.314193 0.0145,0.080041 0.04304,0.368108 0.06305,0.640271 0.04659,0.632282 0.1371209,1.229883 0.1979209,1.307413 0.02608,0.033268 0.11367,0.24405 0.19482,0.4681889 0.08111,0.224126 0.369055,0.947079 0.640271,1.60662 l 0.492993,1.198893 -0.260449,0.4769744 c -0.246789,0.451526 -0.263778,0.51297 -0.321428,1.158585 l -0.06098,0.682129 -0.515214,0.882117 -0.5146969,0.882634 v 0.647505 c 0,0.534117 -0.01616,0.653766 -0.09147,0.682646 -0.05019,0.01917 -0.120847,0.0052 -0.1570975,-0.03101 -0.036272,-0.03625 -0.174344,-0.06615 -0.306958,-0.06615 -0.228312,0 -0.244764,-0.01135 -0.305924,-0.218074 C 8.8594687,14.542719 8.3174957,12.021272 7.6904387,9.0595216 7.0633837,6.0977717 6.5211717,3.6012767 6.4858617,3.5120567 6.4505947,3.4227777 6.3663827,3.3189527 6.2987927,3.2810627 6.2311467,3.2432307 5.7698327,3.1837777 5.2735317,3.1492887 Z m 14.1076663,2.031401 c 0.01246,0.01246 0.05558,0.197012 0.09612,0.409794 l 0.0739,0.386539 -0.155029,0.058395 c -0.136711,0.0516 -0.154512,0.084482 -0.154512,0.280086 0,0.194081 -0.01946,0.229312 -0.154513,0.285254 -0.141587,0.05864 -0.151543,0.080796 -0.125574,0.2744019 0.02653,0.197833 0.01807,0.214718 -0.140043,0.274402 -0.159623,0.06025 -0.166865,0.07504 -0.136426,0.278019 0.03052,0.203511 0.0234,0.217236 -0.139009,0.278536 -0.162194,0.06122 -0.168776,0.07533 -0.136943,0.274402 0.03154,0.19722 0.0239,0.212812 -0.12609,0.2651 -0.141516,0.04933 -0.15968,0.08004 -0.15968,0.269751 0,0.310658 -0.208957,0.410497 -0.479041,0.228926 -0.187269,-0.125896 -0.211467,-0.17088 -0.21239,-0.399975 -7.08e-4,-0.175772 0.01957,-0.209632 0.153479,-0.256315 0.142935,-0.04983 0.15239,-0.06953 0.12609,-0.265617 -0.02667,-0.198811 -0.01823,-0.21518 0.140044,-0.274919 0.159622,-0.06025 0.166349,-0.07503 0.135909,-0.278019 -0.03052,-0.203511 -0.0234,-0.217236 0.139009,-0.278536 0.162194,-0.06122 0.169291,-0.07533 0.137459,-0.274402 -0.03154,-0.1972189 -0.02389,-0.2128139 0.126091,-0.2650999 0.144945,-0.05053 0.159163,-0.077544 0.159163,-0.292489 0,-0.207965 0.01633,-0.240386 0.133326,-0.269751 0.11651,-0.029239 0.132808,-0.062528 0.132808,-0.265616 0,-0.228258 0.0048,-0.233963 0.271818,-0.348816 0.149266,-0.06421 0.281579,-0.106507 0.294039,-0.094051 z m -7.791773,0.00517 c 0.01526,-0.01526 0.150142,0.034272 0.299724,0.110071 0.269296,0.136462 0.271669,0.139953 0.239262,0.342615 -0.03102,0.19403 -0.02395,0.208112 0.139526,0.2651 0.162857,0.05677 0.170671,0.071702 0.144177,0.269234 -0.02573,0.191803 -0.01523,0.214314 0.126091,0.272852 0.135055,0.05595 0.153996,0.09117 0.153996,0.2852539 0,0.193517 0.01892,0.228468 0.148828,0.277502 0.134572,0.0508 0.146704,0.07682 0.128157,0.271301 -0.01913,0.200667 -0.0091,0.218293 0.148828,0.273369 0.147465,0.05141 0.165216,0.07802 0.140043,0.206705 -0.01588,0.0812 -0.04378,0.31539 -0.06201,0.520382 -0.05224,0.587485 -0.03794,0.502295 -0.282154,0.502295 -0.11859,0 -0.120567,-0.07337 -0.08992,-0.254765 0.03262,-0.19309 0.02516,-0.209056 -0.133841,-0.274919 -0.157556,-0.06527 -0.167155,-0.0841 -0.141077,-0.278535 0.02586,-0.192766 0.01645,-0.212466 -0.127124,-0.262517 -0.139183,-0.04852 -0.155546,-0.07805 -0.155546,-0.28422 0,-0.203019 -0.01711,-0.235837 -0.145211,-0.278536 -0.130017,-0.04334 -0.143062,-0.0704 -0.129191,-0.262516 0.01409,-0.195012 3.43e-4,-0.2202749 -0.147795,-0.2816369 -0.152141,-0.06302 -0.160639,-0.08149 -0.129708,-0.274919 0.03128,-0.195621 0.02407,-0.210229 -0.133325,-0.2651 -0.09673,-0.03372 -0.166364,-0.094651 -0.165881,-0.145727 0.0011,-0.117554 0.139065,-0.698203 0.174149,-0.733289 z m 6.08335,5.9980843 0.04806,0.399975 c 0.17212,1.428382 0.16893,1.509686 -0.06253,1.596285 -0.706125,0.264181 -0.65319,0.328513 -0.65319,-0.787032 V 11.3261 l 0.333829,-0.102319 z m -4.194576,5.17e-4 c 0.06647,1.51e-4 0.154598,0.02284 0.271818,0.05426 0.214825,0.05758 0.224793,0.10623 0.224793,1.097607 0,1.095162 -0.01251,1.119984 -0.47439,0.93431 -0.212184,-0.08528 -0.224793,-0.146362 -0.224793,-1.09244 0,-0.790326 0.0032,-0.99419 0.202572,-0.993737 z M 13.824435,13.265 h 0.781864 0.782381 v 0.372587 0.372587 h -0.782381 -0.781864 v -0.372587 z" /></g></g><style
     type="text/css"
     id="style1">&#10;	.st0{fill:#209060;}&#10;</style><style
     type="text/css"
     id="style1-0">&#10;	.st0{fill:#209060;}&#10;</style><style
     type="text/css"
     id="style1-5"><![CDATA[
	.st0{fill:#21552A;}
	.st1{fill:#3FA652;}
]]></style><style
     type="text/css"
     id="style1-7"><![CDATA[
	.st0{fill:#21552A;}
	.st1{fill:#3FA652;}
]]></style></svg>
