<?xml version="1.0" encoding="UTF-8" standalone="no"?>
<svg
   width="256"
   height="256"
   version="1.1"
   id="svg6"
   sodipodi:docname="rotate_screen.svg"
   xml:space="preserve"
   inkscape:version="1.3 (0e150ed6c4, 2023-07-21)"
   xmlns:inkscape="http://www.inkscape.org/namespaces/inkscape"
   xmlns:sodipodi="http://sodipodi.sourceforge.net/DTD/sodipodi-0.dtd"
   xmlns="http://www.w3.org/2000/svg"
   xmlns:svg="http://www.w3.org/2000/svg"><defs
     id="defs6" /><sodipodi:namedview
     id="namedview6"
     pagecolor="#505050"
     bordercolor="#eeeeee"
     borderopacity="1"
     inkscape:showpageshadow="0"
     inkscape:pageopacity="0"
     inkscape:pagecheckerboard="0"
     inkscape:deskcolor="#505050"
     inkscape:zoom="0.54872552"
     inkscape:cx="232.35661"
     inkscape:cy="-171.30605"
     inkscape:window-width="1920"
     inkscape:window-height="1017"
     inkscape:window-x="-8"
     inkscape:window-y="-8"
     inkscape:window-maximized="1"
     inkscape:current-layer="svg6" /><path
     style="fill:#ffffff;fill-opacity:1;stroke-width:1"
     d="m 181.29131,255.74262 c -2.03743,0.85672 -5.99117,0.61391 -8.21098,-0.50427 -2.36614,-1.19189 -3.97415,-3.84752 -4.37825,-7.23067 l -0.24685,-2.06663 -1.45527,0.64185 c -9.29433,4.09926 -17.83596,5.54965 -26.97569,7.3484 -7.31056,1.43871 -20.87493,1.67296 -29.20345,0.5043 -16.856898,-2.36541 -37.986255,-12.58598 -40.163947,-19.42787 -0.759939,-2.38761 0.230108,-5.74874 2.304292,-7.82294 1.834901,-1.83488 6.805237,-3.33136 8.85915,-2.66733 0.99432,0.32146 3.979105,1.86947 6.63285,3.44002 9.668611,5.7221 20.552725,9.43347 30.276605,10.32396 8.49024,0.77752 24.7616,-1.30083 34.89585,-5.23477 l 3.58004,-1.3897 -2.16946,-2.17467 c -2.46037,-2.46629 -3.11866,-5.04941 -2.34424,-9.19906 0.55034,-2.94898 2.99506,-5.28653 6.23456,-5.9613 4.46833,-0.93071 26.66764,3.70646 29.02395,6.06279 3.12449,3.12447 2.97536,9.52283 -0.58487,25.09435 -1.51702,6.63506 -2.86607,8.91449 -6.07429,10.26354 z m 45.18402,-61.89173 c -7.11245,4.01207 -9.55359,3.94483 -97.39539,4.00925 -45.831379,0.0337 -88.870398,-0.2689 -90.743549,-0.67226 -7.091248,-1.52701 -13.799411,-5.83516 -17.579679,-11.29009 -4.603895,-6.64342 -4.637701,-7.02768 -4.736794,-53.83967 C 15.969125,108.07667 16.28658,86.748055 16.72531,84.661203 18.919016,74.22671 28.48969,65.336514 39.508796,63.497622 44.595401,62.648763 212.46534,62.39138 216.88757,63.224937 c 11.66585,2.198913 21.03445,11.329575 22.62266,22.048108 0.8155,5.50364 0.50347,88.537165 -0.34619,92.126105 -1.45372,6.14048 -6.87879,13.17441 -12.68871,16.45174 z m -5.24143,-56.74622 c 0.47359,-52.450926 0.56485,-50.036324 -1.98743,-52.58861 -1.18712,-1.187114 -3.22832,-2.465463 -4.69781,-2.942104 -3.4502,-1.11912 -169.980165,-0.523184 -173.872117,0.623537 -1.585285,0.467086 -3.607872,1.574785 -4.494639,2.461552 -1.524822,1.524824 -1.613237,3.978071 -1.629466,45.214085 -0.01864,47.29893 -0.172246,45.7687 4.873119,48.53973 2.09874,1.1527 17.08642,1.33683 86.148053,1.37746 43.84458,0.0259 85.0009,-0.18143 86.55972,-0.46033 3.65287,-0.65373 7.31454,-2.40803 8.12631,-3.89328 0.35129,-0.64267 0.78969,-17.8921 0.97426,-38.33204 z M 184.41759,31.73402 c -3.18632,0.772486 -4.95954,0.258883 -10.38786,-3.00876 -10.02282,-6.033373 -22.57438,-10.097412 -32.57361,-10.546929 -10.44465,-0.469548 -29.40518,2.681381 -37.67942,7.095541 -2.2217,1.18524 -4.069142,2.184117 -4.105427,2.219724 -0.03627,0.03559 1.067597,1.066462 2.453077,2.290779 2.01067,1.77678 2.62506,2.758309 3.04428,4.863388 1.0829,5.437629 -2.12527,10.005035 -7.343143,10.454317 C 94.558559,45.38337 85.168398,43.281492 76.682599,40.369483 69.321568,37.843448 68.238326,36.973969 67.104206,32.681224 66.291,29.603172 71.617902,5.8506067 73.556085,3.9124253 c 1.669747,-1.6697459 5.031313,-2.7355111 7.859967,-2.4919567 3.59598,0.3096295 7.144012,3.7050015 7.856313,7.5182783 l 0.483445,2.5881011 5.886853,-2.9290759 c 12.346397,-6.1431009 27.965507,-8.80959398 42.565097,-8.85463879 14.77778,-0.0456297 27.6501,2.94812929 39.95388,9.29211849 12.71841,6.5577812 16.78871,13.9385382 10.91903,19.7997342 -1.52013,1.51794 -3.15258,2.532833 -4.66308,2.899034 z"
     id="path6"
     sodipodi:nodetypes="ssscssssssssscssssssscsscsssssssssssssccssssssssssssssscscsss" /></svg>
